P1 211 140 
1111111111111111111111111111111111111111111111111111111111111111111111111111111111111111111111111111111111111111111111111111111111111111111111111111111111111111111111111111111111111111111111111111111111111111111
1111000100100000000110011000010000000101100110000100000001011001100001000000010110011000010000000101100110000100000001011001100001000000010011110001001000000001100110000100000001011001100001000000010110011000011
1000100000000001000010000010000011100000000000100000111000010000001000001110000110000010000011100000100000100000111000011000001000001110000011100000001110000000111000000011101110000000111000000011100000001110101
1001100001000000010010011000010000000100000110000100000001000001100001000000010000011000010000000100000110000100000001011001100001000000010011100000001110000000111000000011101110000000111000000011100000001110101
1001000010000001000110000010000010100001100000100000111000001000001000001110000100000111000000011100000001110000000111000000011100000001110011100000001110000000111000000011101110000000111000000011100000001110101
1000001000100000000010000010000010100001100000100000111000001000001000001110000110000010000010100001100000100000111000011000001000001110000101010000110000010000011100001100000100000111000011000000101000011000001
1000001000001110000110000010000010100001100000100000111000011000001000001110000110000010000000000001100000100000111000011000001000001110000111100000001110000000111000000011101110000000111000000011100000001110101
1000010000000000000000000111000000011100000001110000000111000000011100000001110000000111000000011100000001110000000111000000011100000001110111100000001110000000111000000011101110000000111000000011100000001110101
1111000000000000000000000000000000000000000000000000000000000000000000000000000000000000000000000000000000000000000000000000000000000001111111100000001110000000111000000011101110000000111000000011100000001110101
1111000100100000000110011000010000000101100110000100000001011001100001000000010110011000010000000101100110000100000001011001100001000000010111100000001110000000111000000011101110000000111000000011100000001110101
1000011101010001000110011000010000000101100110000100000001011001100001000000010000011000010000000101100110000100000001011001100001000000010111100000001110000000111000000011101110000000111000000011100000001110101
1000100000000001000010000010000011100000000000100000111000010000001000001110000110000010000011100000100000100000111000011000001000001110000101010000110000010000011100001100000100000111000011000000101000011000001
1001100001000000010010011000010000000100000110000100000001000001100001000000010000011000010000000100000110000100000001011001100001000000010011100000001110000000111000000011101110000000111000000011100000001110101
1001000010000001000110000010000010100001100000100000111000001000001000001110000100000111000000011100000001110000000111000000011100000001110011100000001110000000111000000011101110000000111000000011100000001110101
1000001000001110000110000010000010100001100000100000111000011000001000001110000110000010000000000001100000100000111000011000001000001110000001010000110000010000011100001100000100000111000011000000101000011000001
1000001000001110000110000010000010100001100000100000111000011000001000001110000110000010000000000001100000100000111000011000001000001110000011100000001110000000111000000011101110000000111000000011100000001110101
1000011101010001000110011000010000000101100110000100000001011001100001000000010000011000010000000101100110000100000001011001100001000000010011100000001110000000111000000011101110000000111000000011100000001110101
1000100000000001000010000010000011100000000000100000111000010000001000001110000110000010000011100000100000100000111000011000001000001110000011100000001110000000111000000011101110000000111000000011100000001110101
1010001000000000001010011000010000000100000110000100000001000001100001000000010000011000010000000101000110000100000001011001100001000000010011100000001110000000111000000011101110000000111000000011100000001110101
1001100001000000010010011000010000000100000110000100000001000001100001000000010000011000010000000100000110000100000001011001100001000000010111100000001110000000111000000011101110000000111000000011100000001110101
1001000010000001000110000010000010100001100000100000111000001000001000001110000100000111000000011100000001110000000111000000011100000001110111100000001110000000111000000011101110000000111000000011100000001110101
1000001000100000000010000010000010100001100000100000111000001000001000001110000110000010000010100001100000100000111000011000001000001110000111100000001110000000111000000011101110000000111000000011100000001110101
1000001000001110000110000010000010100001100000100000111000011000001000001110000110000010000000000001100000100000111000011000001000001110000111100000001110000000111000000011101110000000111000000011100000001110101
1000010000000000000000000111000000011100000001110000000111000000011100000001110000000111000000011100000001110000000111000000011100000001110100001000000010000011000010000000100000110000100000010000000100000110001
1111000000000000000000000000000000000000000000000000000000000000000000000000000000000000000000000000000000000000000000000000000000000001111100001000001110000100000111000000011100000001110000000111110100011111111
1111000100100000000110011000010000000101100110000100000001011001100001000000010110011000010000000101100110000100000001011001100001000000010100001000001110000100000111000000011100000001110000000111110100011111101
1000011101010001000110011000010000000101100110000100000001011001100001000000010000011000010000000101100110000100000001011001100001000000010100001110000110000010000000000001100000100000111010001111111110000011111
1000100000000001000010000010000011100000000000100000111000010000001000001110000110000010000011100000100000100000111000011000001000001110000000000100000111000010000001000001110000110000010000011010001111111111111
1010001000000000001010011000010000000100000110000100000001000001100001000000010000011000010000000101000110000100000001011001100001000000010000000100000111000010000001000001110000110000010000011010001111111111101
1000001000100000000010000010000010100001100000100000111000001000001000001110000110000010000010100001100000100000111000011000001000001110000101010000110000010000011100001100000100000111000011000000101000011000001
1000001000001110000110000010000010100001100000100000111000011000001000001110000110000010000000000001100000100000111000011000001000001110000111100000001110000000111000000011101110000000111000000011100000001110101
1000010000000000000000000111000000011100000001110000000111000000011100000001110000000111000000011100000001110000000111000000011100000001110111100000001110000000111000000011101110000000111000000011100000001110101
1111000000000000000000000000000000000000000000000000000000000000000000000000000000000000000000000000000000000000000000000000000000000001111111100000001110000000111000000011101110000000111000000011100000001110101
1111000100100000000110011000010000000101100110000100000001011001100001000000010110011000010000000101100110000100000001011001100001000000010111100000001110000000111000000011101110000000111000000011100000001110101
1000011101010001000110011000010000000101100110000100000001011001100001000000010000011000010000000101100110000100000001011001100001000000010111100000001110000000111000000011101110000000111000000011100000001110101
1000100000000001000010000010000011100000000000100000111000010000001000001110000110000010000011100000100000100000111000011000001000001110000101010000110000010000011100001100000100000111000011000000101000011000001
1001100001000000010010011000010000000100000110000100000001000001100001000000010000011000010000000100000110000100000001011001100001000000010011100000001110000000111000000011101110000000111000000011100000001110101
1001000010000001000110000010000010100001100000100000111000001000001000001110000100000111000000011100000001110000000111000000011100000001110011100000001110000000111000000011101110000000111000000011100000001110101
1000001000001110000110000010000010100001100000100000111000011000001000001110000110000010000000000001100000100000111000011000001000001110000001010000110000010000011100001100000100000111000011000000101000011000001
1000001000001110000110000010000010100001100000100000111000011000001000001110000110000010000000000001100000100000111000011000001000001110000011100000001110000000111000000011101110000000111000000011100000001110101
1000011101010001000110011000010000000101100110000100000001011001100001000000010000011000010000000101100110000100000001011001100001000000010011100000001110000000111000000011101110000000111000000011100000001110101
1000100000000001000010000010000011100000000000100000111000010000001000001110000110000010000011100000100000100000111000011000001000001110000011100000001110000000111000000011101110000000111000000011100000001110101
1010001000000000001010011000010000000100000110000100000001000001100001000000010000011000010000000101000110000100000001011001100001000000010011100000001110000000111000000011101110000000111000000011100000001110101
1001100001000000010010011000010000000100000110000100000001000001100001000000010000011000010000000100000110000100000001011001100001000000010111100000001110000000111000000011101110000000111000000011100000001110101
1001000010000001000110000010000010100001100000100000111000001000001000001110000100000111000000011100000001110000000111000000011100000001110111100000001110000000111000000011101110000000111000000011100000001110101
1000001000100000000010000010000010100001100000100000111000001000001000001110000110000010000010100001100000100000111000011000001000001110000111100000001110000000111000000011101110000000111000000011100000001110101
1000001000001110000110000010000010100001100000100000111000011000001000001110000110000010000000000001100000100000111000011000001000001110000111100000001110000000111000000011101110000000111000000011100000001110101
1000010000000000000000000111000000011100000001110000000111000000011100000001110000000111000000011100000001110000000111000000011100000001110100001000000010000011000010000000100000110000100000010000000100000110001
1111000000000000000000000000000000000000000000000000000000000000000000000000000000000000000000000000000000000000000000000000000000000001111100001000001110000100000111000000011100000001110000000111110100011111111
1111000100100000000110011000010000000101100110000100000001011001100001000000010110011000010000000101100110000100000001011001100001000000010100001000001110000100000111000000011100000001110000000111110100011111101
1000011101010001000110011000010000000101100110000100000001011001100001000000010000011000010000000101100110000100000001011001100001000000010100001110000110000010000000000001100000100000111010001111111110000011111
1000100000000001000010000010000011100000000000100000111000010000001000001110000110000010000011100000100000100000111000011000001000001110000000000100000111000010000001000001110000110000010000011010001111111111111
1010001000000000001010011000010000000100000110000100000001000001100001000000010000011000010000000101000110000100000001011001100001000000010000000100000111000010000001000001110000110000010000011010001111111111101
1001100001000000010010011000010000000100000110000100000001000001100001000000010000011000010000000100000110000100000001011001100001000000010000000001110000000111000000011101110000000111000000011100000001110101101
1001000010000001000110000010000010100001100000100000111000001000001000001110000100000111000000011100000001110000000111000000011100000001110000000001110000000111000000011101110000000111000000011100000001110101101
1000001000100000000010000010000010100001100000100000111000001000001000001110000110000010000010100001100000100000111000011000001000001110000000000001110000000111000000011101110000000111000000011100000001110101101
1000001000001110000110000010000010100001100000100000111000011000001000001110000110000010000000000001100000100000111000011000001000001110000000000001110000000111000000011101110000000111000000011100000001110101101
1000011101010001000110011000010000000101100110000100000001011001100001000000010000011000010000000101100110000100000001011001100001000000010100001110000110000010000000000001100000100000111010001111111110000011111
1000100000000001000010000010000011100000000000100000111000010000001000001110000110000010000011100000100000100000111000011000001000001110000000000100000111000010000001000001110000110000010000011010001111111111111
1010001000000000001010011000010000000100000110000100000001000001100001000000010000011000010000000101000110000100000001011001100001000000010000000100000111000010000001000001110000110000010000011010001111111111101
1000001000100000000010000010000010100001100000100000111000001000001000001110000110000010000010100001100000100000111000011000001000001110000101010000110000010000011100001100000100000111000011000000101000011000001
1000001000001110000110000010000010100001100000100000111000011000001000001110000110000010000000000001100000100000111000011000001000001110000111100000001110000000111000000011101110000000111000000011100000001110101
1000010000000000000000000111000000011100000001110000000111000000011100000001110000000111000000011100000001110000000111000000011100000001110111100000001110000000111000000011101110000000111000000011100000001110101
1111000000000000000000000000000000000000000000000000000000000000000000000000000000000000000000000000000000000000000000000000000000000001111111100000001110000000111000000011101110000000111000000011100000001110101
1111000100100000000110011000010000000101100110000100000001011001100001000000010110011000010000000101100110000100000001011001100001000000010111100000001110000000111000000011101110000000111000000011100000001110101
1000011101010001000110011000010000000101100110000100000001011001100001000000010000011000010000000101100110000100000001011001100001000000010111100000001110000000111000000011101110000000111000000011100000001110101
1000100000000001000010000010000011100000000000100000111000010000001000001110000110000010000011100000100000100000111000011000001000001110000101010000110000010000011100001100000100000111000011000000101000011000001
1001100001000000010010011000010000000100000110000100000001000001100001000000010000011000010000000100000110000100000001011001100001000000010011100000001110000000111000000011101110000000111000000011100000001110101
1001000010000001000110000010000010100001100000100000111000001000001000001110000100000111000000011100000001110000000111000000011100000001110011100000001110000000111000000011101110000000111000000011100000001110101
1000001000001110000110000010000010100001100000100000111000011000001000001110000110000010000000000001100000100000111000011000001000001110000001010000110000010000011100001100000100000111000011000000101000011000001
1000001000001110000110000010000010100001100000100000111000011000001000001110000110000010000000000001100000100000111000011000001000001110000011100000001110000000111000000011101110000000111000000011100000001110101
1000011101010001000110011000010000000101100110000100000001011001100001000000010000011000010000000101100110000100000001011001100001000000010011100000001110000000111000000011101110000000111000000011100000001110101
1000100000000001000010000010000011100000000000100000111000010000001000001110000110000010000011100000100000100000111000011000001000001110000011100000001110000000111000000011101110000000111000000011100000001110101
1001100001000000010010011000010000000100000110000100000001000001100001000000010000011000010000000100000110000100000001011001100001000000010011100000001110000000111000000011101110000000111000000011100000001110101
1001000010000001000110000010000010100001100000100000111000001000001000001110000100000111000000011100000001110000000111000000011100000001110011100000001110000000111000000011101110000000111000000011100000001110101
1000001000001110000110000010000010100001100000100000111000011000001000001110000110000010000000000001100000100000111000011000001000001110000001010000110000010000011100001100000100000111000011000000101000011000001
1000001000001110000110000010000010100001100000100000111000011000001000001110000110000010000000000001100000100000111000011000001000001110000011100000001110000000111000000011101110000000111000000011100000001110101
1000011101010001000110011000010000000101100110000100000001011001100001000000010000011000010000000101100110000100000001011001100001000000010011100000001110000000111000000011101110000000111000000011100000001110101
1000100000000001000010000010000011100000000000100000111000010000001000001110000110000010000011100000100000100000111000011000001000001110000011100000001110000000111000000011101110000000111000000011100000001110101
1010001000000000001010011000010000000100000110000100000001000001100001000000010000011000010000000101000110000100000001011001100001000000010011100000001110000000111000000011101110000000111000000011100000001110101
1001100001000000010010011000010000000100000110000100000001000001100001000000010000011000010000000100000110000100000001011001100001000000010111100000001110000000111000000011101110000000111000000011100000001110101
1001000010000001000110000010000010100001100000100000111000001000001000001110000100000111000000011100000001110000000111000000011100000001110111100000001110000000111000000011101110000000111000000011100000001110101
1000001000100000000010000010000010100001100000100000111000001000001000001110000110000010000010100001100000100000111000011000001000001110000111100000001110000000111000000011101110000000111000000011100000001110101
1000001000001110000110000010000010100001100000100000111000011000001000001110000110000010000000000001100000100000111000011000001000001110000111100000001110000000111000000011101110000000111000000011100000001110101
1000010000000000000000000111000000011100000001110000000111000000011100000001110000000111000000011100000001110000000111000000011100000001110100001000000010000011000010000000100000110000100000010000000100000110001
1111000000000000000000000000000000000000000000000000000000000000000000000000000000000000000000000000000000000000000000000000000000000001111100001000001110000100000111000000011100000001110000000111110100011111111
1111000100100000000110011000010000000101100110000100000001011001100001000000010110011000010000000101100110000100000001011001100001000000010100001000001110000100000111000000011100000001110000000111110100011111101
1000011101010001000110011000010000000101100110000100000001011001100001000000010000011000010000000101100110000100000001011001100001000000010100001110000110000010000000000001100000100000111010001111111110000011111
1000100000000001000010000010000011100000000000100000111000010000001000001110000110000010000011100000100000100000111000011000001000001110000000000100000111000010000001000001110000110000010000011010001111111111111
1010001000000000001010011000010000000100000110000100000001000001100001000000010000011000010000000101000110000100000001011001100001000000010000000100000111000010000001000001110000110000010000011010001111111111101
1001100001000000010010011000010000000100000110000100000001000001100001000000010000011000010000000100000110000100000001011001100001000000010000000001110000000111000000011101110000000111000000011100000001110101101
1001000010000001000110000010000010100001100000100000111000001000001000001110000100000111000000011100000001110000000111000000011100000001110000000001110000000111000000011101110000000111000000011100000001110101101
1000001000100000000010000010000010100001100000100000111000001000001000001110000110000010000010100001100000100000111000011000001000001110000000000001110000000111000000011101110000000111000000011100000001110101101
1000001000001110000110000010000010100001100000100000111000011000001000001110000110000010000000000001100000100000111000011000001000001110000000000001110000000111000000011101110000000111000000011100000001110101101
1000011101010001000110011000010000000101100110000100000001011001100001000000010000011000010000000101100110000100000001011001100001000000010100001110000110000010000000000001100000100000111010001111111110000011111
1000100000000001000010000010000011100000000000100000111000010000001000001110000110000010000011100000100000100000111000011000001000001110000000000100000111000010000001000001110000110000010000011010001111111111111
1010001000000000001010011000010000000100000110000100000001000001100001000000010000011000010000000101000110000100000001011001100001000000010000000100000111000010000001000001110000110000010000011010001111111111101
1000001000100000000010000010000010100001100000100000111000001000001000001110000110000010000010100001100000100000111000011000001000001110000101010000110000010000011100001100000100000111000011000000101000011000001
1000001000001110000110000010000010100001100000100000111000011000001000001110000110000010000000000001100000100000111000011000001000001110000111100000001110000000111000000011101110000000111000000011100000001110101
1000010000000000000000000111000000011100000001110000000111000000011100000001110000000111000000011100000001110000000111000000011100000001110111100000001110000000111000000011101110000000111000000011100000001110101
1111000000000000000000000000000000000000000000000000000000000000000000000000000000000000000000000000000000000000000000000000000000000001111111100000001110000000111000000011101110000000111000000011100000001110101
1111000100100000000110011000010000000101100110000100000001011001100001000000010110011000010000000101100110000100000001011001100001000000010111100000001110000000111000000011101110000000111000000011100000001110101
1000011101010001000110011000010000000101100110000100000001011001100001000000010000011000010000000101100110000100000001011001100001000000010111100000001110000000111000000011101110000000111000000011100000001110101
1000100000000001000010000010000011100000000000100000111000010000001000001110000110000010000011100000100000100000111000011000001000001110000101010000110000010000011100001100000100000111000011000000101000011000001
1001100001000000010010011000010000000100000110000100000001000001100001000000010000011000010000000100000110000100000001011001100001000000010011100000001110000000111000000011101110000000111000000011100000001110101
1001000010000001000110000010000010100001100000100000111000001000001000001110000100000111000000011100000001110000000111000000011100000001110011100000001110000000111000000011101110000000111000000011100000001110101
1000001000001110000110000010000010100001100000100000111000011000001000001110000110000010000000000001100000100000111000011000001000001110000001010000110000010000011100001100000100000111000011000000101000011000001
1000001000001110000110000010000010100001100000100000111000011000001000001110000110000010000000000001100000100000111000011000001000001110000011100000001110000000111000000011101110000000111000000011100000001110101
1000011101010001000110011000010000000101100110000100000001011001100001000000010000011000010000000101100110000100000001011001100001000000010011100000001110000000111000000011101110000000111000000011100000001110101
1000100000000001000010000010000011100000000000100000111000010000001000001110000110000010000011100000100000100000111000011000001000001110000011100000001110000000111000000011101110000000111000000011100000001110101
1010001000000000001010011000010000000100000110000100000001000001100001000000010000011000010000000101000110000100000001011001100001000000010011100000001110000000111000000011101110000000111000000011100000001110101
1001100001000000010010011000010000000100000110000100000001000001100001000000010000011000010000000100000110000100000001011001100001000000010111100000001110000000111000000011101110000000111000000011100000001110101
1010001000000000001010011000010000000100000110000100000001000001100001000000010000011000010000000101000110000100000001011001100001000000010011100000001110000000111000000011101110000000111000000011100000001110101
1001100001000000010010011000010000000100000110000100000001000001100001000000010000011000010000000100000110000100000001011001100001000000010111100000001110000000111000000011101110000000111000000011100000001110101
1001000010000001000110000010000010100001100000100000111000001000001000001110000100000111000000011100000001110000000111000000011100000001110111100000001110000000111000000011101110000000111000000011100000001110101
1000001000100000000010000010000010100001100000100000111000001000001000001110000110000010000010100001100000100000111000011000001000001110000111100000001110000000111000000011101110000000111000000011100000001110101
1000001000001110000110000010000010100001100000100000111000011000001000001110000110000010000000000001100000100000111000011000001000001110000111100000001110000000111000000011101110000000111000000011100000001110101
1000010000000000000000000111000000011100000001110000000111000000011100000001110000000111000000011100000001110000000111000000011100000001110100001000000010000011000010000000100000110000100000010000000100000110001
1111000000000000000000000000000000000000000000000000000000000000000000000000000000000000000000000000000000000000000000000000000000000001111100001000001110000100000111000000011100000001110000000111110100011111111
1111000100100000000110011000010000000101100110000100000001011001100001000000010110011000010000000101100110000100000001011001100001000000010100001000001110000100000111000000011100000001110000000111110100011111101
1000011101010001000110011000010000000101100110000100000001011001100001000000010000011000010000000101100110000100000001011001100001000000010100001110000110000010000000000001100000100000111010001111111110000011111
1000100000000001000010000010000011100000000000100000111000010000001000001110000110000010000011100000100000100000111000011000001000001110000000000100000111000010000001000001110000110000010000011010001111111111111
1010001000000000001010011000010000000100000110000100000001000001100001000000010000011000010000000101000110000100000001011001100001000000010000000100000111000010000001000001110000110000010000011010001111111111101
1001100001000000010010011000010000000100000110000100000001000001100001000000010000011000010000000100000110000100000001011001100001000000010000000001110000000111000000011101110000000111000000011100000001110101101
1001000010000001000110000010000010100001100000100000111000001000001000001110000100000111000000011100000001110000000111000000011100000001110000000001110000000111000000011101110000000111000000011100000001110101101
1000001000100000000010000010000010100001100000100000111000001000001000001110000110000010000010100001100000100000111000011000001000001110000000000001110000000111000000011101110000000111000000011100000001110101101
1000001000001110000110000010000010100001100000100000111000011000001000001110000110000010000000000001100000100000111000011000001000001110000000000001110000000111000000011101110000000111000000011100000001110101101
1000010000000000000000000111000000011100000001110000000111000000011100000001110000000111000000011100000001110000000111000000011100000001110000000001110000000111000000011101110000000111000000011100000001110101101
1111000000000000000000000000000000000000000000000000000000000000000000000000000000000000000000000000000000000000000000000000000000000001111000000001110000000111000000011101110000000111000000011100000001110101101
1111000100100000000110011000010000000101100110000100000001011001100001000000010110011000010000000101100110000100000001011001100001000000010000000001110000000111000000011101110000000111000000011100000001110101101
1000011101010001000110011000010000000101100110000100000001011001100001000000010000011000010000000101100110000100000001011001100001000000010000000001110000000111000000011101110000000111000000011100000001110101101
1111000100100000000110011000010000000101100110000100000001011001100001000000010110011000010000000101100110000100000001011001100001000000010011110001001000000001100110000100000001011001100001000000010110011000011
1000100000000001000010000010000011100000000000100000111000010000001000001110000110000010000011100000100000100000111000011000001000001110000011100000001110000000111000000011101110000000111000000011100000001110101
1010001000000000001010011000010000000100000110000100000001000001100001000000010000011000010000000101000110000100000001011001100001000000010111100000001110000000111000000011101110000000111000000011100000001110101
1001100001000000010010011000010000000100000110000100000001000001100001000000010000011000010000000100000110000100000001011001100001000000010111100000001110000000111000000011101110000000111000000011100000001110101
1001000010000001000110000010000010100001100000100000111000001000001000001110000100000111000000011100000001110000000111000000011100000001110111100000001110000000111000000011101110000000111000000011100000001110101
1001100001000000010010011000010000000100000110000100000001000001100001000000010000011000010000000100000110000100000001011001100001000000010111100000001110000000111000000011101110000000111000000011100000001110101
1001100001000000010010011000010000000100000110000100000001000001100001000000010000011000010000000100000110000100000001011001100001000000010111100000001110000000111000000011101110000000111000000011100000001110101
1001000010000001000110000010000010100001100000100000111000001000001000001110000100000111000000011100000001110000000111000000011100000001110111100000001110000000111000000011101110000000111000000011100000001110101
1111111111111111111111111111111111111111111111111111111111111111111111111111111111111111111111111111111111111111111111111111111111111111111111111111111111111111111111111111111111111111111111111111111111111111111
