P1 140 43
11111111111111111111111111111111111111111111111111111111111111111111111111111111111111111111111111111111111111111111111111111111111111111111
11110001001000000001100110000100000001011001100001000000010110011000010000000101100110000100000001011001100001000000010110011000010000000101
10000111010100010001100110000100000001011001100001000000010110011000010000000100000110000100000001011001100001000000010110011000010000000101
10001000000000010000100000100000111000000000001000001110000100000010000011100001100000100000111000001000001000001110000110000010000011100001
10100010000000000010100110000100000001000001100001000000010000011000010000000100000110000100000001010001100001000000010110011000010000000101
10011000010000000100100110000100000001000001100001000000010000011000010000000100000110000100000001000001100001000000010110011000010000000101
10010000100000010001100000100000101000011000001000001110000010000010000011100001000001110000000111000000011100000001110000000111000000011101
10000010001000000000100000100000101000011000001000001110000010000010000011100001100000100000101000011000001000001110000110000010000011100001
10000010000011100001100000100000101000011000001000001110000110000010000011100001100000100000000000011000001000001110000110000010000011100001
10000100000000000000000001110000000111000000011100000001110000000111000000011100000001110000000111000000011100000001110000000111000000011101
11110000000000000000000000000000000000000000000000000000000000000000000000000000000000000000000000000000000000000000000000000000000000011111
11110001001000000001100110000100000001011001100001000000010110011000010000000101100110000100000001011001100001000000010110011000010000000101
10000111010100010001100110000100000001011001100001000000010110011000010000000100000110000100000001011001100001000000010110011000010000000101
10001000000000010000100000100000111000000000001000001110000100000010000011100001100000100000111000001000001000001110000110000010000011100001
10100010000000000010100110000100000001000001100001000000010000011000010000000100000110000100000001010001100001000000010110011000010000000101
10011000010000000100100110000100000001000001100001000000010000011000010000000100000110000100000001000001100001000000010110011000010000000101
10010000100000010001100000100000101000011000001000001110000010000010000011100001000001110000000111000000011100000001110000000111000000011101
10000010001000000000100000100000101000011000001000001110000010000010000011100001100000100000101000011000001000001110000110000010000011100001
10000010000011100001100000100000101000011000001000001110000110000010000011100001100000100000000000011000001000001110000110000010000011100001
10000100000000000000000001110000000111000000011100000001110000000111000000011100000001110000000111000000011100000001110000000111000000011101
11110000000000000000000000000000000000000000000000000000000000000000000000000000000000000000000000000000000000000000000000000000000000011111
11110001001000000001100110000100000001011001100001000000010110011000010000000101100110000100000001011001100001000000010110011000010000000101
10000111010100010001100110000100000001011001100001000000010110011000010000000100000110000100000001011001100001000000010110011000010000000101
10001000000000010000100000100000111000000000001000001110000100000010000011100001100000100000111000001000001000001110000110000010000011100001
10100010000000000010100110000100000001000001100001000000010000011000010000000100000110000100000001010001100001000000010110011000010000000101
10011000010000000100100110000100000001000001100001000000010000011000010000000100000110000100000001000001100001000000010110011000010000000101
10010000100000010001100000100000101000011000001000001110000010000010000011100001000001110000000111000000011100000001110000000111000000011101
10011000010000000100100110000100000001000001100001000000010000011000010000000100000110000100000001000001100001000000010110011000010000000101
10010000100000010001100000100000101000011000001000001110000010000010000011100001000001110000000111000000011100000001110000000111000000011101
10000010001000000000100000100000101000011000001000001110000010000010000011100001100000100000101000011000001000001110000110000010000011100001
10000010000011100001100000100000101000011000001000001110000110000010000011100001100000100000000000011000001000001110000110000010000011100001
10000100000000000000000001110000000111000000011100000001110000000111000000011100000001110000000111000000011100000001110000000111000000011101
11110000000000000000000000000000000000000000000000000000000000000000000000000000000000000000000000000000000000000000000000000000000000011111
11110001001000000001100110000100000001011001100001000000010110011000010000000101100110000100000001011001100001000000010110011000010000000101
10000111010100010001100110000100000001011001100001000000010110011000010000000100000110000100000001011001100001000000010110011000010000000101
10001000000000010000100000100000111000000000001000001110000100000010000011100001100000100000111000001000001000001110000110000010000011100001
10100010000000000010100110000100000001000001100001000000010000011000010000000100000110000100000001010001100001000000010110011000010000000101
10011000010000000100100110000100000001000001100001000000010000011000010000000100000110000100000001000001100001000000010110011000010000000101
10010000100000010001100000100000101000011000001000001110000010000010000011100001000001110000000111000000011100000001110000000111000000011101
10000010000011100001100000100000101000011000001000001110000110000010000011100001100000100000000000011000001000001110000110000010000011100001
10000010000011100001100000100000101000011000001000001110000110000010000011100001100000100000000000011000001000001110000110000010000011100001
10000100000000000000000001110000000111000000011100000001110000000111000000011100000001110000000111000000011100000001110000000111000000011101
11111111111111111111111111111111111111111111111111111111111111111111111111111111111111111111111111111111111111111111111111111111111111111111
